# xmcd
#
# Track frame offsets:
#	183
#	22400
#	41313
#	61460
#	77218
#	100000
#	121095
#	139920
#	158148
#	178388
#
# Disc length: 2642 seconds
#
# Revision: 3
# Processed by: cddbd v1.5.1PL0 Copyright (c) Steve Scherf et al.
# Submitted via: dBpowerAMP V4.0
#
DISCID=860a500a
DTITLE=TroyNewman - GypsyMoon;EastWest91670-2
DYEAR=1991
DGENRE=Rock
TTITLE0=LoveGetsRough(TNewman&DaveMalloy;1991,TroyNewman)
TTITLE1=Raining(1991,TroyNewman)
TTITLE2=GodOnlyKnows(1991,TroyNewman)
TTITLE3=AlwaysTime(1991,TroyNewman)
TTITLE4=ICanFeelIt(TNewman&DaveMalloy;1991,TroyNewman)
TTITLE5=Whisper(1991,TroyNewman)
TTITLE6=GoneAreTheDays(1991,TroyNewman)
TTITLE7=DriveMyCar(JohnLennon&PaulMcCartney,England;1991,TroyNewman)
TTITLE8=SoDeep(1991,TroyNewman)
TTITLE9=ItTakesTime(1991,TroyNewman)
EXTD=more info\nMillenniumMusicProjectFormat, syntax as follows:\nTitle{Subtitle}[info](Lyricist;Composer;Date,Artist,Location)[info]\ncorrections to: windking3@yahoo.com
EXTT0=
EXTT1=
EXTT2=
EXTT3=
EXTT4=
EXTT5=
EXTT6=
EXTT7=
EXTT8=
EXTT9=
PLAYORDER=
